<?xml version="1.0" standalone="no"?>
<!DOCTYPE svg PUBLIC "-//W3C//DTD SVG 20010904//EN"
 "http://www.w3.org/TR/2001/REC-SVG-20010904/DTD/svg10.dtd">
<svg version="1.0" xmlns="http://www.w3.org/2000/svg"
 width="96.000000pt" height="96.000000pt" viewBox="0 0 96.000000 96.000000"
 preserveAspectRatio="xMidYMid meet">
<metadata>
Created by potrace 1.14, written by Peter Selinger 2001-2017
</metadata>
<g transform="translate(0.000000,96.000000) scale(0.100000,-0.100000)"
fill="#000000" stroke="none">
<path d="M397 930 c-158 -40 -278 -182 -277 -329 1 -128 137 -365 321 -559
l41 -42 30 32 c137 152 258 328 299 437 68 181 -1 349 -178 433 -68 32 -170
44 -236 28z m147 -184 c77 -32 116 -138 79 -215 -42 -87 -155 -116 -232 -61
-44 32 -61 58 -68 103 -20 126 103 222 221 173z"/>
</g>
</svg>
